<svg width="20" height="21" viewBox="0 0 20 21" fill="none" xmlns="http://www.w3.org/2000/svg">
<path d="M5.13592 20.5133C2.30396 20.5133 0 18.2102 0 15.3801V9.72266C0 6.89163 2.30396 4.58951 5.13592 4.58951H5.34483C5.37124 2.04124 7.45126 -0.0109912 10.0005 4.42982e-05C12.489 4.42982e-05 14.5198 1.95971 14.6333 4.42059L14.6376 4.58951H14.8632C17.696 4.58951 20 6.89163 20 9.72266V15.3801C20 18.2102 17.696 20.5133 14.8632 20.5133H5.13592ZM1.53875 9.72266V15.3801C1.53875 17.3619 3.15226 18.9745 5.13592 18.9745H14.8632C16.8468 18.9745 18.4613 17.3619 18.4613 15.3801V9.72266C18.4613 7.73993 16.8468 6.12826 14.8632 6.12826H14.6389V7.74916C14.6389 8.17377 14.2945 8.51807 13.869 8.51807C13.4804 8.51807 13.1583 8.22823 13.1075 7.85346L13.1001 7.74916V6.12826H6.88328V7.74916C6.88328 8.17377 6.53805 8.51807 6.11344 8.51807C5.72391 8.51807 5.40269 8.22823 5.35099 7.85346L5.34453 7.74916V6.12826H5.13592C3.15226 6.12826 1.53875 7.73993 1.53875 9.72266ZM13.0997 4.58951C13.0731 2.8993 11.6961 1.53879 9.99769 1.53879C8.34541 1.53141 6.99035 2.81539 6.88882 4.43998L6.88426 4.58951H13.0997Z" fill="black"/>
</svg>
