<svg width="17" height="19" viewBox="0 0 17 19" fill="none" xmlns="http://www.w3.org/2000/svg">
<path d="M2.5 10.75V1M2.5 10.75C2.89782 10.75 3.27936 10.908 3.56066 11.1893C3.84196 11.4706 4 11.8522 4 12.25C4 12.6478 3.84196 13.0294 3.56066 13.3107C3.27936 13.592 2.89782 13.75 2.5 13.75M2.5 10.75C2.10218 10.75 1.72064 10.908 1.43934 11.1893C1.15804 11.4706 1 11.8522 1 12.25C1 12.6478 1.15804 13.0294 1.43934 13.3107C1.72064 13.592 2.10218 13.75 2.5 13.75M2.5 13.75V17.5M14.5 10.75V1M14.5 10.75C14.8978 10.75 15.2794 10.908 15.5607 11.1893C15.842 11.4706 16 11.8522 16 12.25C16 12.6478 15.842 13.0294 15.5607 13.3107C15.2794 13.592 14.8978 13.75 14.5 13.75M14.5 10.75C14.1022 10.75 13.7206 10.908 13.4393 11.1893C13.158 11.4706 13 11.8522 13 12.25C13 12.6478 13.158 13.0294 13.4393 13.3107C13.7206 13.592 14.1022 13.75 14.5 13.75M14.5 13.75V17.5M8.5 4.75V1M8.5 4.75C8.89782 4.75 9.27936 4.90804 9.56066 5.18934C9.84196 5.47064 10 5.85218 10 6.25C10 6.64782 9.84196 7.02936 9.56066 7.31066C9.27936 7.59196 8.89782 7.75 8.5 7.75M8.5 4.75C8.10218 4.75 7.72064 4.90804 7.43934 5.18934C7.15804 5.47064 7 5.85218 7 6.25C7 6.64782 7.15804 7.02936 7.43934 7.31066C7.72064 7.59196 8.10218 7.75 8.5 7.75M8.5 7.75V17.5" stroke="#733168" stroke-width="1.5" stroke-linecap="round" stroke-linejoin="round"/>
</svg>
