<?xml version="1.0" standalone="no"?>
<!DOCTYPE svg PUBLIC "-//W3C//DTD SVG 20010904//EN"
 "http://www.w3.org/TR/2001/REC-SVG-20010904/DTD/svg10.dtd">
<svg version="1.0" xmlns="http://www.w3.org/2000/svg"
 width="500.000000pt" height="500.000000pt" viewBox="0 0 500.000000 500.000000"
 preserveAspectRatio="xMidYMid meet">

<g transform="translate(0.000000,500.000000) scale(0.100000,-0.100000)"
fill="#000000" stroke="none">
<path d="M2650 3838 c15 -29 51 -106 80 -170 48 -108 70 -135 70 -89 0 30
-111 265 -137 289 -39 35 -43 26 -13 -30z"/>
<path d="M3064 3336 c-66 -29 -65 -129 1 -160 41 -20 75 -13 106 20 66 70 -18
179 -107 140z"/>
<path d="M2920 3255 c0 -14 183 -405 190 -405 4 0 9 3 12 6 10 10 -170 399
-187 402 -8 2 -15 1 -15 -3z"/>
<path d="M2603 3038 c-30 -29 -77 -80 -104 -114 -47 -59 -48 -61 -42 -115 8
-85 -17 -159 -75 -217 -26 -26 -61 -54 -78 -63 -39 -20 -54 -74 -62 -213 -5
-112 8 -208 44 -306 27 -72 53 -100 93 -100 22 0 629 270 833 370 51 26 75 63
63 102 -8 23 -292 648 -297 654 -3 3 -299 54 -312 54 -4 0 -32 -24 -63 -52z
m335 -750 c17 -17 15 -42 -5 -61 -23 -20 -259 -127 -282 -127 -39 0 -57 60
-23 80 51 31 251 118 273 119 14 1 30 -4 37 -11z"/>
<path d="M1845 2670 c-73 -30 -94 -124 -41 -179 54 -57 136 -50 176 14 24 39
25 66 4 110 -24 51 -89 76 -139 55z"/>
<path d="M1824 1613 c-42 -21 -64 -61 -64 -117 0 -68 38 -107 110 -114 65 -6
112 16 134 63 55 115 -64 226 -180 168z m109 -71 c23 -20 22 -57 -3 -82 -43
-43 -104 -11 -98 51 5 54 56 70 101 31z"/>
<path d="M3080 1619 c-39 -16 -59 -39 -71 -81 -13 -51 2 -99 42 -133 44 -36
125 -36 168 1 61 51 61 151 0 197 -31 23 -103 31 -139 16z m106 -84 c19 -30 9
-73 -22 -87 -34 -16 -73 -2 -85 29 -27 72 66 121 107 58z"/>
<path d="M1190 1500 l0 -120 35 0 c32 0 35 2 35 30 0 25 4 30 24 30 37 0 86
20 96 40 6 10 10 37 10 59 0 60 -32 81 -126 81 l-74 0 0 -120z m118 61 c8 -4
12 -19 10 -32 -2 -18 -10 -25 -30 -27 -26 -3 -28 -1 -28 32 0 37 17 47 48 27z"/>
<path d="M1470 1500 l0 -120 35 0 c35 0 35 0 35 45 0 45 0 45 35 45 35 0 35 0
35 -45 0 -45 0 -45 35 -45 l35 0 0 120 0 120 -35 0 c-34 0 -35 -1 -35 -40 0
-39 -1 -40 -35 -40 -34 0 -35 1 -35 40 0 39 -1 40 -35 40 l-35 0 0 -120z"/>
<path d="M2090 1500 l0 -120 35 0 34 0 3 62 3 63 45 -62 c36 -50 50 -62 73
-63 l27 0 0 120 0 120 -30 0 c-30 0 -30 -1 -30 -55 0 -30 -4 -55 -8 -55 -5 0
-26 25 -48 55 -33 47 -44 55 -71 55 l-33 0 0 -120z"/>
<path d="M2400 1500 l0 -120 85 0 85 0 0 30 c0 29 -1 30 -50 30 -43 0 -50 3
-50 20 0 17 7 20 45 20 41 0 45 2 45 25 0 23 -4 25 -45 25 -38 0 -45 3 -45 20
0 17 7 20 45 20 41 0 45 2 45 25 0 25 -1 25 -80 25 l-80 0 0 -120z"/>
<path d="M2750 1590 c0 -29 2 -30 45 -30 25 0 45 -3 45 -6 0 -3 -20 -32 -45
-64 -27 -35 -45 -69 -45 -84 l0 -26 95 0 95 0 0 29 c0 29 -2 30 -51 33 l-51 3
51 65 c28 36 51 75 51 88 0 21 -3 22 -95 22 l-95 0 0 -30z"/>
<path d="M3340 1500 l0 -120 35 0 34 0 3 61 3 61 44 -61 c36 -50 50 -61 73
-61 l28 0 0 120 0 120 -35 0 -34 0 -3 -57 -3 -57 -43 57 c-35 47 -48 57 -72
57 l-30 0 0 -120z"/>
<path d="M3650 1500 l0 -120 86 0 85 0 -3 28 c-3 25 -6 27 -56 30 -44 3 -53 6
-50 20 2 12 15 18 46 20 37 3 42 6 42 27 0 21 -5 24 -42 27 -30 2 -43 8 -43
18 0 11 13 16 48 18 42 3 47 5 47 28 0 23 -2 24 -80 24 l-80 0 0 -120z"/>
<path d="M1683 1243 c13 -3 17 -15 17 -54 0 -27 5 -49 10 -49 6 0 10 22 10 49
0 43 3 50 23 54 12 2 0 4 -28 4 -27 1 -42 -1 -32 -4z"/>
<path d="M1820 1195 l0 -55 35 0 c19 0 35 5 35 10 0 6 -11 10 -25 10 -34 0
-32 28 3 33 l27 4 -27 2 c-21 1 -28 6 -28 20 0 14 8 21 28 24 22 3 20 4 -10 6
l-38 1 0 -55z"/>
<path d="M1972 1238 c-7 -7 -12 -26 -12 -43 0 -17 5 -36 12 -43 17 -17 53 -15
68 3 14 17 0 21 -16 5 -27 -27 -64 23 -44 60 12 23 30 26 48 8 13 -13 27 -5
17 11 -9 15 -58 14 -73 -1z"/>
<path d="M2120 1195 c0 -30 5 -55 10 -55 6 0 10 11 10 25 0 20 5 25 25 25 20
0 25 -5 25 -25 0 -14 5 -25 10 -25 6 0 10 25 10 55 0 30 -4 55 -10 55 -5 0
-10 -11 -10 -25 0 -20 -5 -25 -25 -25 -20 0 -25 5 -25 25 0 14 -4 25 -10 25
-5 0 -10 -25 -10 -55z"/>
<path d="M2292 1238 c-7 -7 -12 -26 -12 -43 0 -17 5 -36 12 -43 17 -17 54 -15
72 4 19 18 21 65 4 82 -15 15 -61 15 -76 0z m66 -35 c4 -40 -27 -62 -52 -37
-19 18 -20 28 -5 55 17 32 53 21 57 -18z"/>
<path d="M2452 1193 l1 -58 6 45 6 45 24 -42 c14 -24 28 -43 33 -43 4 0 7 26
6 58 -1 56 -1 57 -7 13 l-6 -44 -23 42 c-13 22 -27 41 -33 41 -5 0 -8 -26 -7
-57z"/>
<path d="M2624 1242 c-22 -14 -26 -52 -10 -77 40 -62 120 1 86 66 -11 19 -54
26 -76 11z m54 -14 c32 -32 -3 -88 -41 -67 -30 17 -16 79 18 79 6 0 16 -5 23
-12z"/>
<path d="M2782 1198 l-2 -58 30 0 c17 0 30 5 30 10 0 6 -11 10 -24 10 -22 0
-25 5 -29 48 -3 46 -3 46 -5 -10z"/>
<path d="M2910 1231 c-15 -30 -12 -56 9 -75 27 -25 63 -17 79 17 12 24 11 31
-2 53 -21 30 -70 33 -86 5z m68 -3 c30 -30 -3 -87 -39 -68 -32 17 -19 80 16
80 6 0 16 -5 23 -12z"/>
<path d="M3080 1231 c-25 -48 4 -93 59 -89 27 2 31 6 31 30 0 22 -5 28 -22 28
-21 0 -21 -1 -3 -14 18 -13 18 -13 -1 -24 -42 -23 -76 37 -38 69 13 10 19 10
36 0 21 -13 34 -9 23 8 -11 19 -73 13 -85 -8z"/>
<path d="M3240 1242 c0 -4 5 -13 11 -19 6 -6 17 -28 24 -49 10 -27 14 -32 15
-17 0 12 9 38 21 57 12 20 16 36 10 36 -6 0 -16 -10 -22 -22 l-12 -22 -17 22
c-19 23 -30 28 -30 14z"/>
</g>
</svg>
