<svg width="18" height="18" viewBox="0 0 18 18" fill="none" xmlns="http://www.w3.org/2000/svg">
<g filter="url(#filter0_b_55_12365)">
<path d="M16.9379 17.8727L16.8634 17.8096L14.0486 15.0647C12.5678 16.2243 10.6903 16.9186 8.64998 16.9186C3.8807 16.9186 0 13.1237 0 8.45968C0 3.79487 3.8807 0 8.64998 0C13.4201 0 17.3008 3.79487 17.3008 8.45968C17.3008 10.6605 16.4366 12.6678 15.0227 14.1742L17.8046 16.887C18.0646 17.1413 18.0654 17.5536 17.8054 17.8087C17.6752 17.9363 17.5047 18 17.3341 18C17.1948 18 17.0555 17.9576 16.9379 17.8727ZM1.33245 8.45968C1.33245 12.406 4.61537 15.6161 8.64998 15.6161C12.6854 15.6161 15.9683 12.406 15.9683 8.45968C15.9683 4.51334 12.6854 1.3033 8.64998 1.3033C4.61537 1.3033 1.33245 4.51334 1.33245 8.45968Z" fill="#C3C3D5"/>
</g>
<defs>
<filter id="filter0_b_55_12365" x="-9.98147" y="-9.98147" width="37.9629" height="37.9629" filterUnits="userSpaceOnUse" color-interpolation-filters="sRGB">
<feFlood flood-opacity="0" result="BackgroundImageFix"/>
<feGaussianBlur in="BackgroundImageFix" stdDeviation="4.99073"/>
<feComposite in2="SourceAlpha" operator="in" result="effect1_backgroundBlur_55_12365"/>
<feBlend mode="normal" in="SourceGraphic" in2="effect1_backgroundBlur_55_12365" result="shape"/>
</filter>
</defs>
</svg>
